<svg xmlns="http://www.w3.org/2000/svg" xmlns:xlink="http://www.w3.org/1999/xlink" viewBox="240 92 50 50"><defs><style>.a{clip-path:url(#b);}.b{fill:#0098e7;}</style><clipPath id="b"><rect x="240" y="92" width="50" height="50"/></clipPath></defs><g id="a" class="a"><g transform="translate(244.684 96)"><path class="b" d="M29.19,42.459H11.5a1.341,1.341,0,0,1-.708-.354L.177,29.721A.65.65,0,0,1,0,29.19V13.268c0-.177.177-.531.177-.708L12.561.177c.177,0,.531-.177.708-.177H29.19c.177,0,.531.177.708.177L42.282,12.561c0,.177.177.531.177.708V29.19c0,.177-.177.531-.177.708L29.9,42.282C29.721,42.282,29.367,42.459,29.19,42.459ZM11.853,40.69H28.837L40.69,28.837V13.622L28.837,1.769H13.622L1.769,13.622V28.837Z"/><g transform="translate(32.729 21.229)"><path class="b" d="M22.923,13.769H19.385a.885.885,0,1,1,0-1.769h3.538a.885.885,0,1,1,0,1.769Z" transform="translate(-18.5 -12)"/></g><g transform="translate(29.102 29.279)"><path class="b" d="M20.077,20.884a1.064,1.064,0,0,1-.708-.177l-2.654-2.654a.876.876,0,0,1,1.238-1.238l2.654,2.654a.855.855,0,0,1,0,1.238C20.607,20.884,20.254,20.884,20.077,20.884Z" transform="translate(-16.45 -16.55)"/></g><g transform="translate(19.46 32.729)"><path class="b" d="M11.885,23.807A.836.836,0,0,1,11,22.923V19.385a.885.885,0,0,1,1.769,0v3.538A.836.836,0,0,1,11.885,23.807Z" transform="translate(-11 -18.5)"/></g><g transform="translate(8.757 29.279)"><path class="b" d="M5.923,20.884a1.064,1.064,0,0,1-.708-.177.855.855,0,0,1,0-1.238l2.654-2.654a.876.876,0,0,1,1.238,1.238L6.454,20.707C6.454,20.884,6.1,20.884,5.923,20.884Z" transform="translate(-4.95 -16.55)"/></g><g transform="translate(4.423 21.229)"><path class="b" d="M6.923,13.769H3.385a.885.885,0,0,1,0-1.769H6.923a.885.885,0,1,1,0,1.769Z" transform="translate(-2.5 -12)"/></g><g transform="translate(8.89 8.757)"><path class="b" d="M8.519,9.461a1.064,1.064,0,0,1-.708-.177L5.158,6.631a1.953,1.953,0,0,1,0-1.415c.177-.354.885-.354,1.238,0L9.05,7.869a.855.855,0,0,1,0,1.238C9.05,9.461,8.7,9.461,8.519,9.461Z" transform="translate(-5.025 -4.95)"/></g><g transform="translate(29.102 8.934)"><path class="b" d="M17.423,9.384a1.064,1.064,0,0,1-.708-.177.855.855,0,0,1,0-1.238l2.654-2.654a.876.876,0,1,1,1.238,1.238L17.954,9.207C17.954,9.384,17.6,9.384,17.423,9.384Z" transform="translate(-16.45 -5.05)"/></g><g transform="translate(19.46 6.192)"><path class="b" d="M19.846,20.307H11.885A.836.836,0,0,1,11,19.422V4.385a.885.885,0,1,1,1.769,0V18.537h7.076a.885.885,0,0,1,0,1.769Z" transform="translate(-11 -3.5)"/></g></g></g></svg>