<svg xmlns="http://www.w3.org/2000/svg" xmlns:xlink="http://www.w3.org/1999/xlink" viewBox="480 0 50 50">
  <defs>
    <style>
      .cls-1 {
        clip-path: url(#clip-ic_code);
      }

      .cls-2 {
        fill: #0098e7;
      }
    </style>
    <clipPath id="clip-ic_code">
      <rect x="480" width="50" height="50"/>
    </clipPath>
  </defs>
  <g id="ic_code" class="cls-1">
    <path id="e080" class="cls-2" d="M.938-27.656H29.063A.95.95,0,0,0,30-28.594V-52.031a.95.95,0,0,0-.937-.937H.938A.95.95,0,0,0,0-52.031v23.438A.95.95,0,0,0,.938-27.656Zm.938-1.875V-45.469h26.25v15.938Zm26.25-21.562v3.75H1.875v-3.75ZM4.688-48.281a1.383,1.383,0,0,0,.645-.293,1.049,1.049,0,0,0,.293-.645,1.383,1.383,0,0,0-.293-.645.92.92,0,0,0-1.289,0,1.049,1.049,0,0,0-.293.645,1.383,1.383,0,0,0,.293.645A1.049,1.049,0,0,0,4.688-48.281Zm2.813,0a1.383,1.383,0,0,0,.645-.293,1.049,1.049,0,0,0,.293-.645,1.383,1.383,0,0,0-.293-.645.92.92,0,0,0-1.289,0,1.049,1.049,0,0,0-.293.645,1.383,1.383,0,0,0,.293.645A1.049,1.049,0,0,0,7.5-48.281Zm2.813,0a1.383,1.383,0,0,0,.645-.293,1.049,1.049,0,0,0,.293-.645,1.383,1.383,0,0,0-.293-.645.92.92,0,0,0-1.289,0,1.049,1.049,0,0,0-.293.645,1.383,1.383,0,0,0,.293.645A1.049,1.049,0,0,0,10.313-48.281Zm15,4.688H4.688a.95.95,0,0,0-.937.938.95.95,0,0,0,.938.938H25.313a.95.95,0,0,0,.938-.937A.95.95,0,0,0,25.313-43.594Zm0,3.75H4.688a.95.95,0,0,0-.937.938.95.95,0,0,0,.938.938H25.313a.95.95,0,0,0,.938-.937A.95.95,0,0,0,25.313-39.844Zm0,3.75H4.688a.95.95,0,0,0-.937.938.95.95,0,0,0,.938.938H25.313a.95.95,0,0,0,.938-.937A.95.95,0,0,0,25.313-36.094Zm0,0" transform="translate(490 64.969)"/>
  </g>
</svg>
