<svg xmlns="http://www.w3.org/2000/svg" xmlns:xlink="http://www.w3.org/1999/xlink" viewBox="600 0 50 50">
  <defs>
    <style>
      .cls-1 {
        clip-path: url(#clip-ic_commit);
      }

      .cls-2 {
        fill: #0098e7;
      }
    </style>
    <clipPath id="clip-ic_commit">
      <rect x="600" width="50" height="50"/>
    </clipPath>
  </defs>
  <g id="ic_commit" class="cls-1">
    <path id="e076" class="cls-2" d="M15-28.125a.95.95,0,0,0,.938-.937V-41.777l2.168,2.109a1.049,1.049,0,0,0,.645.293,1.383,1.383,0,0,0,.645-.293.806.806,0,0,0,0-1.289l-3.75-3.75a.806.806,0,0,0-1.289,0l-3.75,3.75a.806.806,0,0,0,0,1.289.806.806,0,0,0,1.289,0l2.168-2.109v12.715A.95.95,0,0,0,15-28.125ZM.938-35.625H11.25a.95.95,0,0,0,.938-.937.95.95,0,0,0-.937-.937H1.875v-15h26.25v15H18.75a.95.95,0,0,0-.937.938.95.95,0,0,0,.938.938H29.063A.95.95,0,0,0,30-36.562V-53.437a.95.95,0,0,0-.937-.937H.938A.95.95,0,0,0,0-53.437v16.875A.95.95,0,0,0,.938-35.625Zm0,0" transform="translate(610 66.375)"/>
  </g>
</svg>
