<svg xmlns="http://www.w3.org/2000/svg" xmlns:xlink="http://www.w3.org/1999/xlink" viewBox="360 0 50 50">
  <defs>
    <style>
      .cls-1 {
        clip-path: url(#clip-ic_create);
      }

      .cls-2 {
        fill: #0098e7;
      }
    </style>
    <clipPath id="clip-ic_create">
      <rect x="360" width="50" height="50"/>
    </clipPath>
  </defs>
  <g id="ic_create" class="cls-1">
    <path id="e051" class="cls-2" d="M1.465-29.59a1.56,1.56,0,0,0,.7-.176l6.738-2.988a5.545,5.545,0,0,0,1.816-1.23l18.34-18.34a1.955,1.955,0,0,0,.527-1.348,2.2,2.2,0,0,0-.527-1.348l-3.34-3.34a1.955,1.955,0,0,0-1.348-.527,2.2,2.2,0,0,0-1.348.527L4.219-39.551a6.779,6.779,0,0,0-1.23,1.875L.41-31.465a1.764,1.764,0,0,0,.059,1.348A1.483,1.483,0,0,0,1.465-29.59Zm7.91-5.742-3.34-3.34L21.563-54.2l3.34,3.34Zm15-21.68,3.34,3.34L26.25-52.207l-3.34-3.34ZM4.746-36.973l.117-.234,2.871,2.93L2.7-32.051Zm0,0" transform="translate(369.694 68.887)"/>
  </g>
</svg>
