<svg xmlns="http://www.w3.org/2000/svg" xmlns:xlink="http://www.w3.org/1999/xlink" viewBox="480 117 50 50">
  <defs>
    <style>
      .cls-1 {
        clip-path: url(#clip-ic_deploy);
      }

      .cls-2 {
        fill: #0098e7;
      }
    </style>
    <clipPath id="clip-ic_deploy">
      <rect x="480" y="117" width="50" height="50"/>
    </clipPath>
  </defs>
  <g id="ic_deploy" class="cls-1">
    <path id="e009" class="cls-2" d="M15-28.125a.95.95,0,0,0,.938-.937V-41.777l2.168,2.109a1.049,1.049,0,0,0,.645.293,1.383,1.383,0,0,0,.645-.293.806.806,0,0,0,0-1.289l-3.75-3.75a.806.806,0,0,0-1.289,0l-3.75,3.75a.806.806,0,0,0,0,1.289.806.806,0,0,0,1.289,0l2.168-2.109v12.715A.95.95,0,0,0,15-28.125ZM26.191-44.941A9.79,9.79,0,0,0,21.914-52.5a10.408,10.408,0,0,0-5.977-1.875,10.063,10.063,0,0,0-8.145,3.75A10.248,10.248,0,0,0,5.8-46.875H5.625A5.263,5.263,0,0,0,.879-44.238,5.544,5.544,0,0,0,0-41.25,5.263,5.263,0,0,0,2.637-36.5a5.544,5.544,0,0,0,2.988.879H11.25a.95.95,0,0,0,.938-.937.95.95,0,0,0-.937-.937H5.625a3.51,3.51,0,0,1-3.34-2.051,3.755,3.755,0,0,1-.41-1.7,3.51,3.51,0,0,1,2.051-3.34,3.755,3.755,0,0,1,1.7-.41h.938a1.016,1.016,0,0,0,.938-.762A7.757,7.757,0,0,1,11.836-51.5a8.833,8.833,0,0,1,4.1-1,8.115,8.115,0,0,1,6.738,3.34,8.5,8.5,0,0,1,1.7,5.1.95.95,0,0,0,.938.938,2.709,2.709,0,0,1,2.578,1.641,3.135,3.135,0,0,1,.234,1.172,2.709,2.709,0,0,1-1.641,2.578,3.135,3.135,0,0,1-1.172.234H18.75a.95.95,0,0,0-.937.938.95.95,0,0,0,.938.938h6.563a4.48,4.48,0,0,0,4.043-2.285,4.928,4.928,0,0,0,.645-2.4,4.406,4.406,0,0,0-2.4-4.1A6.87,6.87,0,0,0,26.191-44.941Zm0,0" transform="translate(490 183.375)"/>
  </g>
</svg>
