<svg xmlns="http://www.w3.org/2000/svg" xmlns:xlink="http://www.w3.org/1999/xlink" viewBox="120 184 50 50">
  <defs>
    <style>
      .cls-1 {
        clip-path: url(#clip-ic_instrumented);
      }

      .cls-2 {
        fill: #0098e7;
      }

      .cls-3 {
        fill: none;
        stroke: #0098e7;
        stroke-width: 2px;
      }
    </style>
    <clipPath id="clip-ic_instrumented">
      <rect x="120" y="184" width="50" height="50"/>
    </clipPath>
  </defs>
  <g id="ic_instrumented" class="cls-1">
    <g id="Group_79" data-name="Group 79" transform="translate(123.939 191.959)">
      <g id="Group_74" data-name="Group 74" transform="translate(0.885 7.076)">
        <rect id="Rectangle_6" data-name="Rectangle 6" class="cls-2" width="40.69" height="1.769"/>
      </g>
      <g id="Group_75" data-name="Group 75">
        <path id="Path_61" data-name="Path 61" class="cls-2" d="M473.574,373.382h-40.69A.836.836,0,0,1,432,372.5V338.885a.836.836,0,0,1,.885-.885h40.69a.836.836,0,0,1,.885.885V372.5A.836.836,0,0,1,473.574,373.382Zm-39.805-1.769h38.92V339.769h-38.92Z" transform="translate(-432 -338)"/>
      </g>
      <g id="Group_76" data-name="Group 76" transform="translate(3.538 3.538)">
        <path id="Path_62" data-name="Path 62" class="cls-2" d="M435.769,341.769h-.885a.885.885,0,1,1,0-1.769h.885a.885.885,0,0,1,0,1.769Z" transform="translate(-434 -340)"/>
      </g>
      <g id="Group_77" data-name="Group 77" transform="translate(7.076 3.538)">
        <path id="Path_63" data-name="Path 63" class="cls-2" d="M437.769,341.769h-.885a.885.885,0,0,1,0-1.769h.885a.885.885,0,0,1,0,1.769Z" transform="translate(-436 -340)"/>
      </g>
      <g id="Group_78" data-name="Group 78" transform="translate(10.615 3.538)">
        <path id="Path_64" data-name="Path 64" class="cls-2" d="M439.769,341.769h-.885a.885.885,0,0,1,0-1.769h.885a.885.885,0,1,1,0,1.769Z" transform="translate(-438 -340)"/>
      </g>
      <line id="Line_1" data-name="Line 1" class="cls-3" y1="3" transform="translate(11.561 25.54)"/>
      <line id="Line_2" data-name="Line 2" class="cls-3" y1="7" transform="translate(15.561 21.54)"/>
      <line id="Line_3" data-name="Line 3" class="cls-3" y1="6" transform="translate(19.561 22.54)"/>
      <line id="Line_4" data-name="Line 4" class="cls-3" y1="10" transform="translate(23.561 18.54)"/>
      <line id="Line_5" data-name="Line 5" class="cls-3" y1="8.812" transform="translate(27.561 19.728)"/>
      <line id="Line_6" data-name="Line 6" class="cls-3" y1="14.687" transform="translate(31.561 13.853)"/>
    </g>
  </g>
</svg>
