<svg xmlns="http://www.w3.org/2000/svg" xmlns:xlink="http://www.w3.org/1999/xlink" viewBox="0 92 50 50">
  <defs>
    <style>
      .cls-1 {
        clip-path: url(#clip-ic_quality);
      }

      .cls-2 {
        fill: #0098e7;
      }
    </style>
    <clipPath id="clip-ic_quality">
      <rect y="92" width="50" height="50"/>
    </clipPath>
  </defs>
  <g id="ic_quality" class="cls-1">
    <g id="Group_36" data-name="Group 36" transform="translate(10.279 96.752)">
      <g id="Group_30" data-name="Group 30" transform="translate(0 12.118)">
        <g id="Group_29" data-name="Group 29">
          <path id="Path_22" data-name="Path 22" class="cls-2" d="M210.653,181.19a1.064,1.064,0,0,1-.708-.177l-5.13-5.13h-4.069a.836.836,0,0,1-.885-.885v-4.069l-4.246-4.246a.855.855,0,0,1,0-1.238l4.246-4.246V157.13a.836.836,0,0,1,.885-.885h4.069l5.13-5.13a.855.855,0,0,1,1.238,0l5.13,5.13h4.069a.836.836,0,0,1,.885.885V161.2l4.246,4.246a.855.855,0,0,1,0,1.238l-4.246,4.246V175a.836.836,0,0,1-.885.885h-4.069l-5.13,5.13C211.184,181.19,210.83,181.19,210.653,181.19Zm-8.846-7.076h3.538c.177,0,.531.177.708.177l4.6,4.6,4.6-4.6c.177-.177.354-.177.708-.177H219.5v-3.538c0-.177.177-.531.177-.708l3.715-3.715-3.715-3.715c-.177-.177-.177-.354-.177-.708v-3.538H215.96c-.177,0-.531-.177-.708-.177l-4.6-4.6-4.6,4.6c-.177.177-.354.177-.708.177h-3.538v3.538c0,.177-.177.531-.177.708l-3.715,3.715,3.715,3.715c.177.177.177.354.177.708Z" transform="translate(-195.35 -150.85)"/>
        </g>
      </g>
      <g id="Group_31" data-name="Group 31" transform="translate(6.457)">
        <path id="Path_23" data-name="Path 23" class="cls-2" d="M207.846,158.153h-.354l-7.961-3.538a.973.973,0,0,1-.531-.885v-8.846a.885.885,0,0,1,1.769,0V153.2l7.076,3.184,7.076-3.184v-8.315a.885.885,0,0,1,1.769,0v8.846a.973.973,0,0,1-.531.885l-7.961,3.538Z" transform="translate(-199 -144)"/>
      </g>
      <g id="Group_32" data-name="Group 32" transform="translate(2.919)">
        <path id="Path_24" data-name="Path 24" class="cls-2" d="M220.883,145.769h-23a.885.885,0,1,1,0-1.769h23a.885.885,0,0,1,0,1.769Z" transform="translate(-197 -144)"/>
      </g>
      <g id="Group_33" data-name="Group 33" transform="translate(11.765 0.177)">
        <path id="Path_25" data-name="Path 25" class="cls-2" d="M202.885,156.838a.836.836,0,0,1-.885-.885V144.985a.885.885,0,0,1,1.769,0v10.968A.948.948,0,0,1,202.885,156.838Z" transform="translate(-202 -144.1)"/>
      </g>
      <g id="Group_34" data-name="Group 34" transform="translate(17.072 0.177)">
        <path id="Path_26" data-name="Path 26" class="cls-2" d="M205.885,156.838a.836.836,0,0,1-.885-.885V144.985a.885.885,0,0,1,1.769,0v10.968A.948.948,0,0,1,205.885,156.838Z" transform="translate(-205 -144.1)"/>
      </g>
      <g id="Group_35" data-name="Group 35" transform="translate(9.995 21.274)">
        <path id="Path_27" data-name="Path 27" class="cls-2" d="M206.307,168.365a.65.65,0,0,1-.531-.177l-4.423-2.654a.706.706,0,0,1-.354-.708v-5.307a.919.919,0,0,1,.354-.708l4.423-2.654a.79.79,0,0,1,.885,0l4.423,2.654a.706.706,0,0,1,.354.708v5.307a.919.919,0,0,1-.354.708l-4.423,2.654C206.661,168.365,206.484,168.365,206.307,168.365Zm-3.538-4.069,3.538,2.123,3.538-2.123V160.05l-3.538-2.123-3.538,2.123Z" transform="translate(-201 -156.025)"/>
      </g>
    </g>
  </g>
</svg>
