<svg xmlns="http://www.w3.org/2000/svg" xmlns:xlink="http://www.w3.org/1999/xlink" viewBox="120 0 50 50">
  <defs>
    <style>
      .cls-1 {
        clip-path: url(#clip-ic_service);
      }

      .cls-2 {
        fill: #0098e7;
      }
    </style>
    <clipPath id="clip-ic_service">
      <rect x="120" width="50" height="50"/>
    </clipPath>
  </defs>
  <g id="ic_service" class="cls-1">
    <g id="Group_17" data-name="Group 17" transform="translate(124.6 4.67)">
      <g id="Group_8" data-name="Group 8" transform="translate(3.538 15.922)">
        <path id="Path_7" data-name="Path 7" class="cls-2" d="M73.883,216.922h-23a.836.836,0,0,1-.885-.885V201.885a.885.885,0,1,1,1.769,0v13.268H73.883a.885.885,0,0,1,0,1.769Z" transform="translate(-50 -201)"/>
      </g>
      <g id="Group_9" data-name="Group 9" transform="translate(12.384 7.076)">
        <path id="Path_8" data-name="Path 8" class="cls-2" d="M77.114,211.922a.836.836,0,0,1-.885-.885V197.769H55.885a.885.885,0,1,1,0-1.769H77.114a.836.836,0,0,1,.885.885v14.153A.836.836,0,0,1,77.114,211.922Z" transform="translate(-55 -196)"/>
      </g>
      <g id="Group_10" data-name="Group 10" transform="translate(17.691 30.959)">
        <rect id="Rectangle_1" data-name="Rectangle 1" class="cls-2" width="1.769" height="7.076"/>
      </g>
      <g id="Group_11" data-name="Group 11" transform="translate(10.615 37.151)">
        <path id="Path_9" data-name="Path 9" class="cls-2" d="M69.037,214.769H54.885a.885.885,0,0,1,0-1.769H69.037a.885.885,0,0,1,0,1.769Z" transform="translate(-54 -213)"/>
      </g>
      <g id="Group_12" data-name="Group 12" transform="translate(3.538 24.768)">
        <path id="Path_10" data-name="Path 10" class="cls-2" d="M73.883,207.769h-23a.885.885,0,1,1,0-1.769h23a.885.885,0,0,1,0,1.769Z" transform="translate(-50 -206)"/>
      </g>
      <g id="Group_13" data-name="Group 13">
        <path id="Path_11" data-name="Path 11" class="cls-2" d="M57.73,206.153H48.885a.836.836,0,0,1-.885-.885V192.885a.836.836,0,0,1,.885-.885H57.73a.836.836,0,0,1,.885.885v12.384A.836.836,0,0,1,57.73,206.153Zm-7.961-1.769h7.076V193.769H49.769Z" transform="translate(-48 -192)"/>
      </g>
      <g id="Group_14" data-name="Group 14" transform="translate(30.075 24.768)">
        <path id="Path_12" data-name="Path 12" class="cls-2" d="M76.5,223.691H65.885a.836.836,0,0,1-.885-.885V206.885a.836.836,0,0,1,.885-.885H76.5a.836.836,0,0,1,.885.885v15.922A.836.836,0,0,1,76.5,223.691Zm-9.73-1.769h8.846V207.769H66.769Z" transform="translate(-65 -206)"/>
      </g>
      <g id="Group_15" data-name="Group 15" transform="translate(3.538 8.846)">
        <path id="Path_13" data-name="Path 13" class="cls-2" d="M52.654,198.769H50.885a.885.885,0,0,1,0-1.769h1.769a.885.885,0,0,1,0,1.769Z" transform="translate(-50 -197)"/>
      </g>
      <g id="Group_16" data-name="Group 16" transform="translate(30.959 37.151)">
        <rect id="Rectangle_2" data-name="Rectangle 2" class="cls-2" width="10.615" height="1.769"/>
      </g>
    </g>
  </g>
</svg>
