<svg xmlns="http://www.w3.org/2000/svg" xmlns:xlink="http://www.w3.org/1999/xlink" viewBox="120 92 50 50">
  <defs>
    <style>
      .cls-1 {
        clip-path: url(#clip-ic_self-service);
      }

      .cls-2 {
        fill: #0098e7;
      }
    </style>
    <clipPath id="clip-ic_self-service">
      <rect x="120" y="92" width="50" height="50"/>
    </clipPath>
  </defs>
  <g id="ic_self-service" class="cls-1">
    <g id="Group_54" data-name="Group 54" transform="translate(124.285 96.686)">
      <g id="Group_37" data-name="Group 37" transform="translate(18.642 15.922)">
        <path id="Path_28" data-name="Path 28" class="cls-2" d="M206.923,59.769h-3.538a.885.885,0,0,1,0-1.769h3.538a.885.885,0,1,1,0,1.769Z" transform="translate(-202.5 -58)"/>
      </g>
      <g id="Group_38" data-name="Group 38" transform="translate(0.066)">
        <path id="Path_29" data-name="Path 29" class="cls-2" d="M233.574,66.691h-4.423a.885.885,0,0,1,0-1.769h3.361l-3.184-14.153h-32.2l-3.184,14.153h3.361a.885.885,0,0,1,0,1.769h-4.423a.919.919,0,0,1-.708-.354A1.064,1.064,0,0,1,192,65.63l3.538-15.922a1.175,1.175,0,0,1,.885-.708h33.613a1.175,1.175,0,0,1,.885.708l3.538,15.922a1.064,1.064,0,0,1-.177.708A.919.919,0,0,1,233.574,66.691Z" transform="translate(-192 -49)"/>
      </g>
      <g id="Group_39" data-name="Group 39" transform="translate(0 14.153)">
        <path id="Path_30" data-name="Path 30" class="cls-2" d="M192.913,83.537h-.354a.788.788,0,0,1-.531-1.061l1.769-5.13-.885-6.015v-.354l1.769-8.846c0-.354.531-.708.885-.708h1.769a.836.836,0,0,1,.885.885v1.238l1.769-5.838a1.176,1.176,0,0,1,.885-.708h2.654a1.341,1.341,0,0,1,.708.354,1.064,1.064,0,0,1,.177.708l-.708,4.246,1.592-3.892a.973.973,0,0,1,.885-.531h2.654a.919.919,0,0,1,.708.354,1.064,1.064,0,0,1,.177.708l-3.008,11.145,2.477-1.592a.79.79,0,0,1,.885,0l1.769.885.531.531a1.064,1.064,0,0,1-.177.708l-6.9,8.669-.885,3.361a.9.9,0,1,1-1.769-.354l.885-3.538c0-.177,0-.177.177-.354l6.369-7.961-.354-.177-4.069,2.477a1.128,1.128,0,0,1-1.061,0c-.354-.177-.354-.531-.354-.885l3.184-12.207h-.885L202.29,69.738c-.177.354-.708.708-1.061.531a1.2,1.2,0,0,1-.708-1.061l1.592-10.438h-.885l-3.361,10.792a.859.859,0,0,1-1.061.531.809.809,0,0,1-.708-.885V63.015h-.177l-1.592,7.961.885,6.015v.354l-1.769,5.307C193.621,83.36,193.267,83.537,192.913,83.537Z" transform="translate(-191.962 -57)"/>
      </g>
      <g id="Group_40" data-name="Group 40" transform="translate(21.826 14.33)">
        <path id="Path_31" data-name="Path 31" class="cls-2" d="M224.114,83.46a.973.973,0,0,1-.885-.531l-1.769-5.307v-.354l.885-6.015-1.592-7.961h-.177v6.015c0,.354-.354.885-.708.885a1.261,1.261,0,0,1-1.061-.531l-3.361-10.792h-.885l1.592,10.438a.97.97,0,0,1-.708,1.061c-.354.177-.885-.177-1.061-.531l-4.246-10.084h-.885l3.184,12.207a.646.646,0,0,1-.354.885,1.128,1.128,0,0,1-1.061,0l-4.069-2.477-.354.177,6.369,7.961c0,.177.177.177.177.354l.885,3.538c.177.531-.177.885-.708,1.061s-.885-.177-1.061-.708l-.885-3.361-6.9-8.669a1.064,1.064,0,0,1-.177-.708.565.565,0,0,1,.531-.531L206.6,68.6a.8.8,0,0,1,.885,0l2.477,1.592-3.007-11.145c0-.354,0-.531.177-.708a.919.919,0,0,1,.708-.354h2.654a.973.973,0,0,1,.885.531l1.592,3.892-.708-4.246a1.064,1.064,0,0,1,.177-.708.919.919,0,0,1,.708-.354H215.8a.9.9,0,0,1,.885.708l1.769,5.838V62.23a.836.836,0,0,1,.885-.885h1.769a1.175,1.175,0,0,1,.885.708L223.76,70.9v.354l-.885,6.015,1.769,5.13a.859.859,0,0,1-.531,1.061Z" transform="translate(-204.3 -57.1)"/>
      </g>
      <g id="Group_41" data-name="Group 41" transform="translate(8.912 5.307)">
        <path id="Path_32" data-name="Path 32" class="cls-2" d="M198.769,53.769h-.885a.885.885,0,1,1,0-1.769h.885a.885.885,0,0,1,0,1.769Z" transform="translate(-197 -52)"/>
      </g>
      <g id="Group_42" data-name="Group 42" transform="translate(7.143 8.846)">
        <path id="Path_33" data-name="Path 33" class="cls-2" d="M197.769,55.769h-.885a.885.885,0,0,1,0-1.769h.885a.885.885,0,1,1,0,1.769Z" transform="translate(-196 -54)"/>
      </g>
      <g id="Group_43" data-name="Group 43" transform="translate(13.335 5.307)">
        <path id="Path_34" data-name="Path 34" class="cls-2" d="M201.269,53.769h-.885a.885.885,0,0,1,0-1.769h.885a.885.885,0,0,1,0,1.769Z" transform="translate(-199.5 -52)"/>
      </g>
      <g id="Group_44" data-name="Group 44" transform="translate(11.566 8.846)">
        <path id="Path_35" data-name="Path 35" class="cls-2" d="M200.269,55.769h-.885a.885.885,0,0,1,0-1.769h.885a.885.885,0,0,1,0,1.769Z" transform="translate(-198.5 -54)"/>
      </g>
      <g id="Group_45" data-name="Group 45" transform="translate(17.757 5.307)">
        <path id="Path_36" data-name="Path 36" class="cls-2" d="M203.769,53.769h-.885a.885.885,0,0,1,0-1.769h.885a.885.885,0,0,1,0,1.769Z" transform="translate(-202 -52)"/>
      </g>
      <g id="Group_46" data-name="Group 46" transform="translate(15.988 8.846)">
        <path id="Path_37" data-name="Path 37" class="cls-2" d="M202.769,55.769h-.885a.885.885,0,1,1,0-1.769h.885a.885.885,0,0,1,0,1.769Z" transform="translate(-201 -54)"/>
      </g>
      <g id="Group_47" data-name="Group 47" transform="translate(22.18 5.307)">
        <path id="Path_38" data-name="Path 38" class="cls-2" d="M206.269,53.769h-.885a.885.885,0,0,1,0-1.769h.885a.885.885,0,0,1,0,1.769Z" transform="translate(-204.5 -52)"/>
      </g>
      <g id="Group_48" data-name="Group 48" transform="translate(20.411 8.846)">
        <path id="Path_39" data-name="Path 39" class="cls-2" d="M205.269,55.769h-.885a.885.885,0,0,1,0-1.769h.885a.885.885,0,0,1,0,1.769Z" transform="translate(-203.5 -54)"/>
      </g>
      <g id="Group_49" data-name="Group 49" transform="translate(26.603 5.307)">
        <path id="Path_40" data-name="Path 40" class="cls-2" d="M208.769,53.769h-.885a.885.885,0,0,1,0-1.769h.885a.885.885,0,0,1,0,1.769Z" transform="translate(-207 -52)"/>
      </g>
      <g id="Group_50" data-name="Group 50" transform="translate(24.834 8.846)">
        <path id="Path_41" data-name="Path 41" class="cls-2" d="M207.769,55.769h-.885a.885.885,0,0,1,0-1.769h.885a.885.885,0,0,1,0,1.769Z" transform="translate(-206 -54)"/>
      </g>
      <g id="Group_51" data-name="Group 51" transform="translate(31.026 5.307)">
        <path id="Path_42" data-name="Path 42" class="cls-2" d="M211.269,53.769h-.885a.885.885,0,0,1,0-1.769h.885a.885.885,0,0,1,0,1.769Z" transform="translate(-209.5 -52)"/>
      </g>
      <g id="Group_52" data-name="Group 52" transform="translate(29.257 8.846)">
        <path id="Path_43" data-name="Path 43" class="cls-2" d="M210.269,55.769h-.885a.885.885,0,0,1,0-1.769h.885a.885.885,0,0,1,0,1.769Z" transform="translate(-208.5 -54)"/>
      </g>
      <g id="Group_53" data-name="Group 53" transform="translate(33.679 8.846)">
        <path id="Path_44" data-name="Path 44" class="cls-2" d="M212.769,55.769h-.885a.885.885,0,0,1,0-1.769h.885a.885.885,0,0,1,0,1.769Z" transform="translate(-211 -54)"/>
      </g>
    </g>
  </g>
</svg>
