<svg xmlns="http://www.w3.org/2000/svg" xmlns:xlink="http://www.w3.org/1999/xlink" viewBox="120 184 50 50"><defs><style>.a{clip-path:url(#b);}.b{fill:#0098e7;}.c{fill:none;stroke:#0098e7;stroke-width:2px;}</style><clipPath id="b"><rect x="120" y="184" width="50" height="50"/></clipPath></defs><g id="a" class="a"><g transform="translate(123.939 191.959)"><g transform="translate(0.885 7.076)"><rect class="b" width="40.69" height="1.769"/></g><path class="b" d="M473.574,373.382h-40.69A.836.836,0,0,1,432,372.5V338.885a.836.836,0,0,1,.885-.885h40.69a.836.836,0,0,1,.885.885V372.5A.836.836,0,0,1,473.574,373.382Zm-39.805-1.769h38.92V339.769h-38.92Z" transform="translate(-432 -338)"/><g transform="translate(3.538 3.538)"><path class="b" d="M435.769,341.769h-.885a.885.885,0,1,1,0-1.769h.885a.885.885,0,0,1,0,1.769Z" transform="translate(-434 -340)"/></g><g transform="translate(7.076 3.538)"><path class="b" d="M437.769,341.769h-.885a.885.885,0,0,1,0-1.769h.885a.885.885,0,0,1,0,1.769Z" transform="translate(-436 -340)"/></g><g transform="translate(10.615 3.538)"><path class="b" d="M439.769,341.769h-.885a.885.885,0,0,1,0-1.769h.885a.885.885,0,1,1,0,1.769Z" transform="translate(-438 -340)"/></g><line class="c" y1="3" transform="translate(11.561 25.54)"/><line class="c" y1="7" transform="translate(15.561 21.54)"/><line class="c" y1="6" transform="translate(19.561 22.54)"/><line class="c" y1="10" transform="translate(23.561 18.54)"/><line class="c" y1="8.812" transform="translate(27.561 19.728)"/><line class="c" y1="14.687" transform="translate(31.561 13.853)"/></g></g></svg>