<svg xmlns="http://www.w3.org/2000/svg" xmlns:xlink="http://www.w3.org/1999/xlink" viewBox="120 92 50 50"><defs><style>.a{clip-path:url(#b);}.b{fill:#0098e7;}</style><clipPath id="b"><rect x="120" y="92" width="50" height="50"/></clipPath></defs><g id="a" class="a"><g transform="translate(124.285 96.686)"><g transform="translate(18.642 15.922)"><path class="b" d="M206.923,59.769h-3.538a.885.885,0,0,1,0-1.769h3.538a.885.885,0,1,1,0,1.769Z" transform="translate(-202.5 -58)"/></g><g transform="translate(0.066)"><path class="b" d="M233.574,66.691h-4.423a.885.885,0,0,1,0-1.769h3.361l-3.184-14.153h-32.2l-3.184,14.153h3.361a.885.885,0,0,1,0,1.769h-4.423a.919.919,0,0,1-.708-.354A1.064,1.064,0,0,1,192,65.63l3.538-15.922a1.175,1.175,0,0,1,.885-.708h33.613a1.175,1.175,0,0,1,.885.708l3.538,15.922a1.064,1.064,0,0,1-.177.708A.919.919,0,0,1,233.574,66.691Z" transform="translate(-192 -49)"/></g><g transform="translate(0 14.153)"><path class="b" d="M192.913,83.537h-.354a.788.788,0,0,1-.531-1.061l1.769-5.13-.885-6.015v-.354l1.769-8.846c0-.354.531-.708.885-.708h1.769a.836.836,0,0,1,.885.885v1.238l1.769-5.838a1.176,1.176,0,0,1,.885-.708h2.654a1.341,1.341,0,0,1,.708.354,1.064,1.064,0,0,1,.177.708l-.708,4.246,1.592-3.892a.973.973,0,0,1,.885-.531h2.654a.919.919,0,0,1,.708.354,1.064,1.064,0,0,1,.177.708l-3.008,11.145,2.477-1.592a.79.79,0,0,1,.885,0l1.769.885.531.531a1.064,1.064,0,0,1-.177.708l-6.9,8.669-.885,3.361a.9.9,0,1,1-1.769-.354l.885-3.538c0-.177,0-.177.177-.354l6.369-7.961-.354-.177-4.069,2.477a1.128,1.128,0,0,1-1.061,0c-.354-.177-.354-.531-.354-.885l3.184-12.207h-.885L202.29,69.738c-.177.354-.708.708-1.061.531a1.2,1.2,0,0,1-.708-1.061l1.592-10.438h-.885l-3.361,10.792a.859.859,0,0,1-1.061.531.809.809,0,0,1-.708-.885V63.015h-.177l-1.592,7.961.885,6.015v.354l-1.769,5.307C193.621,83.36,193.267,83.537,192.913,83.537Z" transform="translate(-191.962 -57)"/></g><g transform="translate(21.826 14.33)"><path class="b" d="M224.114,83.46a.973.973,0,0,1-.885-.531l-1.769-5.307v-.354l.885-6.015-1.592-7.961h-.177v6.015c0,.354-.354.885-.708.885a1.261,1.261,0,0,1-1.061-.531l-3.361-10.792h-.885l1.592,10.438a.97.97,0,0,1-.708,1.061c-.354.177-.885-.177-1.061-.531l-4.246-10.084h-.885l3.184,12.207a.646.646,0,0,1-.354.885,1.128,1.128,0,0,1-1.061,0l-4.069-2.477-.354.177,6.369,7.961c0,.177.177.177.177.354l.885,3.538c.177.531-.177.885-.708,1.061s-.885-.177-1.061-.708l-.885-3.361-6.9-8.669a1.064,1.064,0,0,1-.177-.708.565.565,0,0,1,.531-.531L206.6,68.6a.8.8,0,0,1,.885,0l2.477,1.592-3.007-11.145c0-.354,0-.531.177-.708a.919.919,0,0,1,.708-.354h2.654a.973.973,0,0,1,.885.531l1.592,3.892-.708-4.246a1.064,1.064,0,0,1,.177-.708.919.919,0,0,1,.708-.354H215.8a.9.9,0,0,1,.885.708l1.769,5.838V62.23a.836.836,0,0,1,.885-.885h1.769a1.175,1.175,0,0,1,.885.708L223.76,70.9v.354l-.885,6.015,1.769,5.13a.859.859,0,0,1-.531,1.061Z" transform="translate(-204.3 -57.1)"/></g><g transform="translate(8.912 5.307)"><path class="b" d="M198.769,53.769h-.885a.885.885,0,1,1,0-1.769h.885a.885.885,0,0,1,0,1.769Z" transform="translate(-197 -52)"/></g><g transform="translate(7.143 8.846)"><path class="b" d="M197.769,55.769h-.885a.885.885,0,0,1,0-1.769h.885a.885.885,0,1,1,0,1.769Z" transform="translate(-196 -54)"/></g><g transform="translate(13.335 5.307)"><path class="b" d="M201.269,53.769h-.885a.885.885,0,0,1,0-1.769h.885a.885.885,0,0,1,0,1.769Z" transform="translate(-199.5 -52)"/></g><g transform="translate(11.566 8.846)"><path class="b" d="M200.269,55.769h-.885a.885.885,0,0,1,0-1.769h.885a.885.885,0,0,1,0,1.769Z" transform="translate(-198.5 -54)"/></g><g transform="translate(17.757 5.307)"><path class="b" d="M203.769,53.769h-.885a.885.885,0,0,1,0-1.769h.885a.885.885,0,0,1,0,1.769Z" transform="translate(-202 -52)"/></g><g transform="translate(15.988 8.846)"><path class="b" d="M202.769,55.769h-.885a.885.885,0,1,1,0-1.769h.885a.885.885,0,0,1,0,1.769Z" transform="translate(-201 -54)"/></g><g transform="translate(22.18 5.307)"><path class="b" d="M206.269,53.769h-.885a.885.885,0,0,1,0-1.769h.885a.885.885,0,0,1,0,1.769Z" transform="translate(-204.5 -52)"/></g><g transform="translate(20.411 8.846)"><path class="b" d="M205.269,55.769h-.885a.885.885,0,0,1,0-1.769h.885a.885.885,0,0,1,0,1.769Z" transform="translate(-203.5 -54)"/></g><g transform="translate(26.603 5.307)"><path class="b" d="M208.769,53.769h-.885a.885.885,0,0,1,0-1.769h.885a.885.885,0,0,1,0,1.769Z" transform="translate(-207 -52)"/></g><g transform="translate(24.834 8.846)"><path class="b" d="M207.769,55.769h-.885a.885.885,0,0,1,0-1.769h.885a.885.885,0,0,1,0,1.769Z" transform="translate(-206 -54)"/></g><g transform="translate(31.026 5.307)"><path class="b" d="M211.269,53.769h-.885a.885.885,0,0,1,0-1.769h.885a.885.885,0,0,1,0,1.769Z" transform="translate(-209.5 -52)"/></g><g transform="translate(29.257 8.846)"><path class="b" d="M210.269,55.769h-.885a.885.885,0,0,1,0-1.769h.885a.885.885,0,0,1,0,1.769Z" transform="translate(-208.5 -54)"/></g><g transform="translate(33.679 8.846)"><path class="b" d="M212.769,55.769h-.885a.885.885,0,0,1,0-1.769h.885a.885.885,0,0,1,0,1.769Z" transform="translate(-211 -54)"/></g></g></g></svg>