<svg xmlns="http://www.w3.org/2000/svg" xmlns:xlink="http://www.w3.org/1999/xlink" viewBox="120 0 50 50"><defs><style>.a{clip-path:url(#b);}.b{fill:#0098e7;}</style><clipPath id="b"><rect x="120" width="50" height="50"/></clipPath></defs><g id="a" class="a"><g transform="translate(124.6 4.67)"><g transform="translate(3.538 15.922)"><path class="b" d="M73.883,216.922h-23a.836.836,0,0,1-.885-.885V201.885a.885.885,0,1,1,1.769,0v13.268H73.883a.885.885,0,0,1,0,1.769Z" transform="translate(-50 -201)"/></g><g transform="translate(12.384 7.076)"><path class="b" d="M77.114,211.922a.836.836,0,0,1-.885-.885V197.769H55.885a.885.885,0,1,1,0-1.769H77.114a.836.836,0,0,1,.885.885v14.153A.836.836,0,0,1,77.114,211.922Z" transform="translate(-55 -196)"/></g><g transform="translate(17.691 30.959)"><rect class="b" width="1.769" height="7.076"/></g><g transform="translate(10.615 37.151)"><path class="b" d="M69.037,214.769H54.885a.885.885,0,0,1,0-1.769H69.037a.885.885,0,0,1,0,1.769Z" transform="translate(-54 -213)"/></g><g transform="translate(3.538 24.768)"><path class="b" d="M73.883,207.769h-23a.885.885,0,1,1,0-1.769h23a.885.885,0,0,1,0,1.769Z" transform="translate(-50 -206)"/></g><path class="b" d="M57.73,206.153H48.885a.836.836,0,0,1-.885-.885V192.885a.836.836,0,0,1,.885-.885H57.73a.836.836,0,0,1,.885.885v12.384A.836.836,0,0,1,57.73,206.153Zm-7.961-1.769h7.076V193.769H49.769Z" transform="translate(-48 -192)"/><g transform="translate(30.075 24.768)"><path class="b" d="M76.5,223.691H65.885a.836.836,0,0,1-.885-.885V206.885a.836.836,0,0,1,.885-.885H76.5a.836.836,0,0,1,.885.885v15.922A.836.836,0,0,1,76.5,223.691Zm-9.73-1.769h8.846V207.769H66.769Z" transform="translate(-65 -206)"/></g><g transform="translate(3.538 8.846)"><path class="b" d="M52.654,198.769H50.885a.885.885,0,0,1,0-1.769h1.769a.885.885,0,0,1,0,1.769Z" transform="translate(-50 -197)"/></g><g transform="translate(30.959 37.151)"><rect class="b" width="10.615" height="1.769"/></g></g></g></svg>