<svg xmlns="http://www.w3.org/2000/svg" xmlns:xlink="http://www.w3.org/1999/xlink" viewBox="0 184 50 50"><defs><style>.a{clip-path:url(#b);}.b{fill:#0098e7;}</style><clipPath id="b"><rect y="184" width="50" height="50"/></clipPath></defs><g id="a" class="a"><g transform="translate(4.021 191.959)"><g transform="translate(0.885 7.076)"><rect class="b" width="40.69" height="1.769"/></g><path class="b" d="M425.574,373.382h-40.69A.836.836,0,0,1,384,372.5V338.885a.836.836,0,0,1,.885-.885h40.69a.836.836,0,0,1,.885.885V372.5A.836.836,0,0,1,425.574,373.382Zm-39.805-1.769h38.92V339.769h-38.92Z" transform="translate(-384 -338)"/><g transform="translate(14.153 19.46)"><path class="b" d="M405.268,359.615H392.885a.836.836,0,0,1-.885-.885v-8.846a.836.836,0,0,1,.885-.885h12.384a.836.836,0,0,1,.885.885v8.846A.836.836,0,0,1,405.268,359.615Zm-11.5-1.769h10.615v-7.076H393.769Z" transform="translate(-392 -349)"/></g><g transform="translate(15.922 12.428)"><path class="b" d="M403.615,352.942h-1.769v-3.184l-3.538-2.831-3.538,2.831v3.184H393V349.4a.919.919,0,0,1,.354-.708l4.423-3.538a1.128,1.128,0,0,1,1.061,0l4.423,3.538a.919.919,0,0,1,.354.708v3.538Z" transform="translate(-393 -345.025)"/></g><g transform="translate(20.345 22.998)"><path class="b" d="M396.385,354.538a.836.836,0,0,1-.885-.885v-1.769a.885.885,0,1,1,1.769,0v1.769A.836.836,0,0,1,396.385,354.538Z" transform="translate(-395.5 -351)"/></g><g transform="translate(3.538 3.538)"><path class="b" d="M387.769,341.769h-.885a.885.885,0,1,1,0-1.769h.885a.885.885,0,0,1,0,1.769Z" transform="translate(-386 -340)"/></g><g transform="translate(7.076 3.538)"><path class="b" d="M389.769,341.769h-.885a.885.885,0,0,1,0-1.769h.885a.885.885,0,0,1,0,1.769Z" transform="translate(-388 -340)"/></g><g transform="translate(10.615 3.538)"><path class="b" d="M391.769,341.769h-.885a.885.885,0,1,1,0-1.769h.885a.885.885,0,1,1,0,1.769Z" transform="translate(-390 -340)"/></g></g></g></svg>