<svg xmlns="http://www.w3.org/2000/svg" viewBox="-19133.998 -8495 15.254 18">
  <defs>
    <style>
      .cls-1 {
        fill: #0096ea;
      }
    </style>
  </defs>
  <path id="paypal" class="cls-1" d="M23.658-3321.511a5.329,5.329,0,0,1-.04,2.049q-.874,4.46-5.675,4.46H17.5a.653.653,0,0,0-.442.166.73.73,0,0,0-.241.427l-.04.191-.552,3.475-.02.151a.721.721,0,0,1-.246.427.672.672,0,0,1-.447.166H12.991a.4.4,0,0,1-.331-.151.452.452,0,0,1-.09-.362q.09-.562.266-1.687t.266-1.687q.09-.562.271-1.682l.271-1.682a.388.388,0,0,1,.432-.372h1.316a10.226,10.226,0,0,0,2.371-.211,6.033,6.033,0,0,0,2.883-1.446,6.035,6.035,0,0,0,1.557-2.471,8.8,8.8,0,0,0,.352-1.336.157.157,0,0,1,.025-.075.035.035,0,0,1,.035-.01.205.205,0,0,1,.06.035A2.522,2.522,0,0,1,23.658-3321.511Zm-1.728-2.833a7.114,7.114,0,0,1-.462,2.37,4.88,4.88,0,0,1-3.033,3.164,7.9,7.9,0,0,1-2.531.422q0,.01-.9.01l-.9-.01a1.079,1.079,0,0,0-1.185.964q-.02.08-.854,5.324a.1.1,0,0,1-.121.1H8.973a.468.468,0,0,1-.367-.166.466.466,0,0,1-.116-.387l2.33-14.775a.787.787,0,0,1,.276-.482.779.779,0,0,1,.517-.191h6.007a5.276,5.276,0,0,1,.979.131,6.686,6.686,0,0,1,1.12.322,3.4,3.4,0,0,1,1.642,1.235A3.384,3.384,0,0,1,21.931-3324.344Zm0,0" transform="translate(-19142.484 -5167)"/>
</svg>
