<svg xmlns="http://www.w3.org/2000/svg" xmlns:xlink="http://www.w3.org/1999/xlink" viewBox="0 0 18 22">
  <defs>
    <style>
      .cls-1 {
        clip-path: url(#clip-paypal-logo-white);
      }

      .cls-2, .cls-3, .cls-4 {
        fill: #fff;
      }

      .cls-2 {
        opacity: 0.68;
      }

      .cls-3 {
        opacity: 0.7;
      }
    </style>
    <clipPath id="clip-paypal-logo-white">
      <rect width="18" height="22"/>
    </clipPath>
  </defs>
  <g id="paypal-logo-white" class="cls-1">
    <g id="group">
      <path id="path" class="cls-2" d="M16.163,5.377A4.214,4.214,0,0,0,15.277,1.6C14.284.475,12.513,0,10.245,0H3.659A.95.95,0,0,0,2.73.8L-.034,18.2a.557.557,0,0,0,.561.648h4.06l-.281,1.771a.494.494,0,0,0,.5.561H8.237a.835.835,0,0,0,.821-.691l.043-.173.648-4.1L9.792,16a.816.816,0,0,1,.821-.691h.518c3.326,0,5.917-1.339,6.673-5.248a4.439,4.439,0,0,0-.691-3.952,3.6,3.6,0,0,0-.95-.734h0" transform="translate(0.043)"/>
      <path id="path-2" data-name="path" class="cls-3" d="M16.163,5.377A4.214,4.214,0,0,0,15.277,1.6C14.284.475,12.513,0,10.245,0H3.659A.95.95,0,0,0,2.73.8L-.034,18.2a.557.557,0,0,0,.561.648h4.06L5.6,12.374l-.022.194a.933.933,0,0,1,.929-.8H8.453c3.8,0,6.781-1.533,7.645-6l.065-.389" transform="translate(0.043)"/>
      <path id="path-3" data-name="path" class="cls-4" d="M6.725,5.4a.856.856,0,0,1,.454-.626,1.016,1.016,0,0,1,.346-.086h5.183a10.534,10.534,0,0,1,1.706.13,2.548,2.548,0,0,1,.432.086,2.278,2.278,0,0,1,.41.108l.194.065a5.438,5.438,0,0,1,.713.3A4.214,4.214,0,0,0,15.277,1.6C14.284.475,12.513,0,10.245,0H3.659A.95.95,0,0,0,2.73.8L-.034,18.2a.557.557,0,0,0,.561.648h4.06L5.6,12.374Z" transform="translate(0.043)"/>
    </g>
  </g>
</svg>
